<svg xmlns="http://www.w3.org/2000/svg" width="1460" height="1020" viewBox="0 0 1460 1020" role="img" aria-labelledby="title desc">
<title id="title">Top geographic L3 tags in 2025 and change since 2024</title>
<desc id="desc">Ranked dumbbell chart comparing 2024 and 2025 percentages of all GA resolutions for the top geographic L3 tags by 2025 share.</desc>
<rect width="1460" height="1020" fill="#f5efe4"/>
<circle cx="1370" cy="72" r="180" fill="#e8dcc7" opacity="0.45"/>
<circle cx="1430" cy="10" r="90" fill="#efe5d6" opacity="0.8"/>
<rect x="28" y="24" width="1404" height="972" rx="26" fill="#fffaf1" stroke="#eadfce"/>
<text x="54" y="70" fill="#102a43" font-size="33" font-family="Iowan Old Style, Palatino Linotype, Book Antiqua, Georgia, serif" font-weight="700">Top Geographic L3 Tags, 2025</text>
<text x="54" y="102" fill="#52667a" font-size="16" font-family="Avenir Next, Trebuchet MS, Helvetica Neue, sans-serif">Ranked by 2025 share of all General Assembly resolutions. Hollow blue marks 2024, filled orange marks 2025, and the connector shows the direction of change.</text>
<text x="54" y="126" fill="#52667a" font-size="14" font-family="Avenir Next, Trebuchet MS, Helvetica Neue, sans-serif">Percentages are normalized to each year’s full GA denominator, so the 2024 vs 2025 comparison is comparable despite different resolution counts.</text>
<rect x="1095" y="52" width="132" height="34" rx="17" fill="#eef3f8"/>
<circle cx="1113" cy="69" r="5" fill="none" stroke="#5c7c99" stroke-width="2.5"/>
<text x="1127" y="74" fill="#102a43" font-size="13" font-family="Avenir Next, Trebuchet MS, Helvetica Neue, sans-serif">2024</text>
<rect x="1237" y="52" width="132" height="34" rx="17" fill="#fff0ea"/>
<circle cx="1255" cy="69" r="5" fill="#d95d39"/>
<text x="1269" y="74" fill="#102a43" font-size="13" font-family="Avenir Next, Trebuchet MS, Helvetica Neue, sans-serif">2025</text>
<line x1="410.0" y1="150" x2="410.0" y2="930" stroke="#d9cfbe" stroke-width="1"/>
<text x="410.0" y="144" text-anchor="middle" fill="#52667a" font-size="12" font-family="Avenir Next, Trebuchet MS, Helvetica Neue, sans-serif">0%</text>
<line x1="515.0" y1="150" x2="515.0" y2="930" stroke="#d9cfbe" stroke-width="1"/>
<text x="515.0" y="144" text-anchor="middle" fill="#52667a" font-size="12" font-family="Avenir Next, Trebuchet MS, Helvetica Neue, sans-serif">2%</text>
<line x1="620.0" y1="150" x2="620.0" y2="930" stroke="#d9cfbe" stroke-width="1"/>
<text x="620.0" y="144" text-anchor="middle" fill="#52667a" font-size="12" font-family="Avenir Next, Trebuchet MS, Helvetica Neue, sans-serif">5%</text>
<line x1="725.0" y1="150" x2="725.0" y2="930" stroke="#d9cfbe" stroke-width="1"/>
<text x="725.0" y="144" text-anchor="middle" fill="#52667a" font-size="12" font-family="Avenir Next, Trebuchet MS, Helvetica Neue, sans-serif">8%</text>
<line x1="830.0" y1="150" x2="830.0" y2="930" stroke="#d9cfbe" stroke-width="1"/>
<text x="830.0" y="144" text-anchor="middle" fill="#52667a" font-size="12" font-family="Avenir Next, Trebuchet MS, Helvetica Neue, sans-serif">10%</text>
<line x1="935.0" y1="150" x2="935.0" y2="930" stroke="#d9cfbe" stroke-width="1"/>
<text x="935.0" y="144" text-anchor="middle" fill="#52667a" font-size="12" font-family="Avenir Next, Trebuchet MS, Helvetica Neue, sans-serif">12%</text>
<line x1="1040.0" y1="150" x2="1040.0" y2="930" stroke="#d9cfbe" stroke-width="1"/>
<text x="1040.0" y="144" text-anchor="middle" fill="#52667a" font-size="12" font-family="Avenir Next, Trebuchet MS, Helvetica Neue, sans-serif">15%</text>
<line x1="410" y1="176" x2="1040" y2="176" stroke="#c9bea9" stroke-width="1" opacity="0.35"/>
<line x1="940.5" y1="176" x2="672.5" y2="176" stroke="#c44536" stroke-width="3" stroke-linecap="round" opacity="0.95"/>
<circle cx="940.5" cy="176" r="6.5" fill="#fffaf1" stroke="#5c7c99" stroke-width="3"/>
<circle cx="672.5" cy="176" r="7.5" fill="#d95d39"/>
<text x="54" y="182" fill="#102a43" font-size="15" font-family="Avenir Next, Trebuchet MS, Helvetica Neue, sans-serif" font-weight="600">
<tspan x="54" dy="0">State of Palestine</tspan>
</text>
<text x="1095" y="181" fill="#102a43" font-size="14" font-family="Menlo, Consolas, Monaco, monospace">12 res  ·  6.25%</text>
<rect x="1328" y="163" width="78" height="26" rx="13" fill="#fdeceb"/>
<text x="1367.0" y="181" text-anchor="middle" fill="#c44536" font-size="13" font-family="Menlo, Consolas, Monaco, monospace" font-weight="700">-6.4 pp</text>
<line x1="410" y1="228" x2="1040" y2="228" stroke="#c9bea9" stroke-width="1" opacity="0.35"/>
<line x1="852.3" y1="228" x2="628.8" y2="228" stroke="#c44536" stroke-width="3" stroke-linecap="round" opacity="0.95"/>
<circle cx="852.3" cy="228" r="6.5" fill="#fffaf1" stroke="#5c7c99" stroke-width="3"/>
<circle cx="628.8" cy="228" r="7.5" fill="#d95d39"/>
<text x="54" y="234" fill="#102a43" font-size="15" font-family="Avenir Next, Trebuchet MS, Helvetica Neue, sans-serif" font-weight="600">
<tspan x="54" dy="0">Israel</tspan>
</text>
<text x="1095" y="233" fill="#102a43" font-size="14" font-family="Menlo, Consolas, Monaco, monospace">10 res  ·  5.21%</text>
<rect x="1328" y="215" width="78" height="26" rx="13" fill="#fdeceb"/>
<text x="1367.0" y="233" text-anchor="middle" fill="#c44536" font-size="13" font-family="Menlo, Consolas, Monaco, monospace" font-weight="700">-5.3 pp</text>
<line x1="410" y1="280" x2="1040" y2="280" stroke="#c9bea9" stroke-width="1" opacity="0.35"/>
<line x1="852.3" y1="280" x2="607.0" y2="280" stroke="#c44536" stroke-width="3" stroke-linecap="round" opacity="0.95"/>
<circle cx="852.3" cy="280" r="6.5" fill="#fffaf1" stroke="#5c7c99" stroke-width="3"/>
<circle cx="607.0" cy="280" r="7.5" fill="#d95d39"/>
<text x="54" y="286" fill="#102a43" font-size="15" font-family="Avenir Next, Trebuchet MS, Helvetica Neue, sans-serif" font-weight="600">
<tspan x="54" dy="0">Syrian Arab Republic</tspan>
</text>
<text x="1095" y="285" fill="#102a43" font-size="14" font-family="Menlo, Consolas, Monaco, monospace"> 9 res  ·  4.69%</text>
<rect x="1328" y="267" width="78" height="26" rx="13" fill="#fdeceb"/>
<text x="1367.0" y="285" text-anchor="middle" fill="#c44536" font-size="13" font-family="Menlo, Consolas, Monaco, monospace" font-weight="700">-5.8 pp</text>
<line x1="410" y1="332" x2="1040" y2="332" stroke="#c9bea9" stroke-width="1" opacity="0.35"/>
<line x1="675.4" y1="332" x2="519.2" y2="332" stroke="#c44536" stroke-width="3" stroke-linecap="round" opacity="0.95"/>
<circle cx="675.4" cy="332" r="6.5" fill="#fffaf1" stroke="#5c7c99" stroke-width="3"/>
<circle cx="519.2" cy="332" r="7.5" fill="#d95d39"/>
<text x="54" y="338" fill="#102a43" font-size="15" font-family="Avenir Next, Trebuchet MS, Helvetica Neue, sans-serif" font-weight="600">
<tspan x="54" dy="0">Lebanon</tspan>
</text>
<text x="1095" y="337" fill="#102a43" font-size="14" font-family="Menlo, Consolas, Monaco, monospace"> 5 res  ·  2.60%</text>
<rect x="1328" y="319" width="78" height="26" rx="13" fill="#fdeceb"/>
<text x="1367.0" y="337" text-anchor="middle" fill="#c44536" font-size="13" font-family="Menlo, Consolas, Monaco, monospace" font-weight="700">-3.7 pp</text>
<line x1="410" y1="384" x2="1040" y2="384" stroke="#c9bea9" stroke-width="1" opacity="0.35"/>
<line x1="498.6" y1="384" x2="519.2" y2="384" stroke="#1f8f73" stroke-width="3" stroke-linecap="round" opacity="0.95"/>
<circle cx="498.6" cy="384" r="6.5" fill="#fffaf1" stroke="#5c7c99" stroke-width="3"/>
<circle cx="519.2" cy="384" r="7.5" fill="#d95d39"/>
<text x="54" y="390" fill="#102a43" font-size="15" font-family="Avenir Next, Trebuchet MS, Helvetica Neue, sans-serif" font-weight="600">
<tspan x="54" dy="0">Ukraine</tspan>
</text>
<text x="1095" y="389" fill="#102a43" font-size="14" font-family="Menlo, Consolas, Monaco, monospace"> 5 res  ·  2.60%</text>
<rect x="1328" y="371" width="78" height="26" rx="13" fill="#e8f4ef"/>
<text x="1367.0" y="389" text-anchor="middle" fill="#1f8f73" font-size="13" font-family="Menlo, Consolas, Monaco, monospace" font-weight="700">+0.5 pp</text>
<line x1="410" y1="436" x2="1040" y2="436" stroke="#c9bea9" stroke-width="1" opacity="0.35"/>
<line x1="586.8" y1="436" x2="475.5" y2="436" stroke="#c44536" stroke-width="3" stroke-linecap="round" opacity="0.95"/>
<circle cx="586.8" cy="436" r="6.5" fill="#fffaf1" stroke="#5c7c99" stroke-width="3"/>
<circle cx="475.5" cy="436" r="7.5" fill="#d95d39"/>
<text x="54" y="442" fill="#102a43" font-size="15" font-family="Avenir Next, Trebuchet MS, Helvetica Neue, sans-serif" font-weight="600">
<tspan x="54" dy="0">Jordan</tspan>
</text>
<text x="1095" y="441" fill="#102a43" font-size="14" font-family="Menlo, Consolas, Monaco, monospace"> 3 res  ·  1.56%</text>
<rect x="1328" y="423" width="78" height="26" rx="13" fill="#fdeceb"/>
<text x="1367.0" y="441" text-anchor="middle" fill="#c44536" font-size="13" font-family="Menlo, Consolas, Monaco, monospace" font-weight="700">-2.6 pp</text>
<line x1="410" y1="488" x2="1040" y2="488" stroke="#c9bea9" stroke-width="1" opacity="0.35"/>
<line x1="410.0" y1="488" x2="453.7" y2="488" stroke="#1f8f73" stroke-width="3" stroke-linecap="round" opacity="0.95"/>
<circle cx="410.0" cy="488" r="6.5" fill="#fffaf1" stroke="#5c7c99" stroke-width="3"/>
<circle cx="453.7" cy="488" r="7.5" fill="#d95d39"/>
<text x="54" y="494" fill="#102a43" font-size="15" font-family="Avenir Next, Trebuchet MS, Helvetica Neue, sans-serif" font-weight="600">
<tspan x="54" dy="0">Angola</tspan>
</text>
<text x="1095" y="493" fill="#102a43" font-size="14" font-family="Menlo, Consolas, Monaco, monospace"> 2 res  ·  1.04%</text>
<rect x="1328" y="475" width="78" height="26" rx="13" fill="#e8f4ef"/>
<text x="1367.0" y="493" text-anchor="middle" fill="#1f8f73" font-size="13" font-family="Menlo, Consolas, Monaco, monospace" font-weight="700">+1.0 pp</text>
<line x1="410" y1="540" x2="1040" y2="540" stroke="#c9bea9" stroke-width="1" opacity="0.35"/>
<line x1="410.0" y1="540" x2="453.7" y2="540" stroke="#1f8f73" stroke-width="3" stroke-linecap="round" opacity="0.95"/>
<circle cx="410.0" cy="540" r="6.5" fill="#fffaf1" stroke="#5c7c99" stroke-width="3"/>
<circle cx="453.7" cy="540" r="7.5" fill="#d95d39"/>
<text x="54" y="546" fill="#102a43" font-size="15" font-family="Avenir Next, Trebuchet MS, Helvetica Neue, sans-serif" font-weight="600">
<tspan x="54" dy="0">Cameroon</tspan>
</text>
<text x="1095" y="545" fill="#102a43" font-size="14" font-family="Menlo, Consolas, Monaco, monospace"> 2 res  ·  1.04%</text>
<rect x="1328" y="527" width="78" height="26" rx="13" fill="#e8f4ef"/>
<text x="1367.0" y="545" text-anchor="middle" fill="#1f8f73" font-size="13" font-family="Menlo, Consolas, Monaco, monospace" font-weight="700">+1.0 pp</text>
<line x1="410" y1="592" x2="1040" y2="592" stroke="#c9bea9" stroke-width="1" opacity="0.35"/>
<line x1="410.0" y1="592" x2="453.7" y2="592" stroke="#1f8f73" stroke-width="3" stroke-linecap="round" opacity="0.95"/>
<circle cx="410.0" cy="592" r="6.5" fill="#fffaf1" stroke="#5c7c99" stroke-width="3"/>
<circle cx="453.7" cy="592" r="7.5" fill="#d95d39"/>
<text x="54" y="598" fill="#102a43" font-size="15" font-family="Avenir Next, Trebuchet MS, Helvetica Neue, sans-serif" font-weight="600">
<tspan x="54" dy="0">Central African Republic</tspan>
</text>
<text x="1095" y="597" fill="#102a43" font-size="14" font-family="Menlo, Consolas, Monaco, monospace"> 2 res  ·  1.04%</text>
<rect x="1328" y="579" width="78" height="26" rx="13" fill="#e8f4ef"/>
<text x="1367.0" y="597" text-anchor="middle" fill="#1f8f73" font-size="13" font-family="Menlo, Consolas, Monaco, monospace" font-weight="700">+1.0 pp</text>
<line x1="410" y1="644" x2="1040" y2="644" stroke="#c9bea9" stroke-width="1" opacity="0.35"/>
<line x1="410.0" y1="644" x2="453.7" y2="644" stroke="#1f8f73" stroke-width="3" stroke-linecap="round" opacity="0.95"/>
<circle cx="410.0" cy="644" r="6.5" fill="#fffaf1" stroke="#5c7c99" stroke-width="3"/>
<circle cx="453.7" cy="644" r="7.5" fill="#d95d39"/>
<text x="54" y="650" fill="#102a43" font-size="15" font-family="Avenir Next, Trebuchet MS, Helvetica Neue, sans-serif" font-weight="600">
<tspan x="54" dy="0">Chad</tspan>
</text>
<text x="1095" y="649" fill="#102a43" font-size="14" font-family="Menlo, Consolas, Monaco, monospace"> 2 res  ·  1.04%</text>
<rect x="1328" y="631" width="78" height="26" rx="13" fill="#e8f4ef"/>
<text x="1367.0" y="649" text-anchor="middle" fill="#1f8f73" font-size="13" font-family="Menlo, Consolas, Monaco, monospace" font-weight="700">+1.0 pp</text>
<line x1="410" y1="696" x2="1040" y2="696" stroke="#c9bea9" stroke-width="1" opacity="0.35"/>
<line x1="410.0" y1="696" x2="453.7" y2="696" stroke="#1f8f73" stroke-width="3" stroke-linecap="round" opacity="0.95"/>
<circle cx="410.0" cy="696" r="6.5" fill="#fffaf1" stroke="#5c7c99" stroke-width="3"/>
<circle cx="453.7" cy="696" r="7.5" fill="#d95d39"/>
<text x="54" y="694" fill="#102a43" font-size="15" font-family="Avenir Next, Trebuchet MS, Helvetica Neue, sans-serif" font-weight="600">
<tspan x="54" dy="0">Congo [Republic of the</tspan>
<tspan x="54" dy="16">Congo]</tspan>
</text>
<text x="1095" y="701" fill="#102a43" font-size="14" font-family="Menlo, Consolas, Monaco, monospace"> 2 res  ·  1.04%</text>
<rect x="1328" y="683" width="78" height="26" rx="13" fill="#e8f4ef"/>
<text x="1367.0" y="701" text-anchor="middle" fill="#1f8f73" font-size="13" font-family="Menlo, Consolas, Monaco, monospace" font-weight="700">+1.0 pp</text>
<line x1="410" y1="748" x2="1040" y2="748" stroke="#c9bea9" stroke-width="1" opacity="0.35"/>
<line x1="410.0" y1="748" x2="453.7" y2="748" stroke="#1f8f73" stroke-width="3" stroke-linecap="round" opacity="0.95"/>
<circle cx="410.0" cy="748" r="6.5" fill="#fffaf1" stroke="#5c7c99" stroke-width="3"/>
<circle cx="453.7" cy="748" r="7.5" fill="#d95d39"/>
<text x="54" y="746" fill="#102a43" font-size="15" font-family="Avenir Next, Trebuchet MS, Helvetica Neue, sans-serif" font-weight="600">
<tspan x="54" dy="0">Democratic Republic of the</tspan>
<tspan x="54" dy="16">Congo [DR Congo]</tspan>
</text>
<text x="1095" y="753" fill="#102a43" font-size="14" font-family="Menlo, Consolas, Monaco, monospace"> 2 res  ·  1.04%</text>
<rect x="1328" y="735" width="78" height="26" rx="13" fill="#e8f4ef"/>
<text x="1367.0" y="753" text-anchor="middle" fill="#1f8f73" font-size="13" font-family="Menlo, Consolas, Monaco, monospace" font-weight="700">+1.0 pp</text>
<line x1="410" y1="800" x2="1040" y2="800" stroke="#c9bea9" stroke-width="1" opacity="0.35"/>
<line x1="410.0" y1="800" x2="453.7" y2="800" stroke="#1f8f73" stroke-width="3" stroke-linecap="round" opacity="0.95"/>
<circle cx="410.0" cy="800" r="6.5" fill="#fffaf1" stroke="#5c7c99" stroke-width="3"/>
<circle cx="453.7" cy="800" r="7.5" fill="#d95d39"/>
<text x="54" y="806" fill="#102a43" font-size="15" font-family="Avenir Next, Trebuchet MS, Helvetica Neue, sans-serif" font-weight="600">
<tspan x="54" dy="0">Equatorial Guinea</tspan>
</text>
<text x="1095" y="805" fill="#102a43" font-size="14" font-family="Menlo, Consolas, Monaco, monospace"> 2 res  ·  1.04%</text>
<rect x="1328" y="787" width="78" height="26" rx="13" fill="#e8f4ef"/>
<text x="1367.0" y="805" text-anchor="middle" fill="#1f8f73" font-size="13" font-family="Menlo, Consolas, Monaco, monospace" font-weight="700">+1.0 pp</text>
<line x1="410" y1="852" x2="1040" y2="852" stroke="#c9bea9" stroke-width="1" opacity="0.35"/>
<line x1="410.0" y1="852" x2="453.7" y2="852" stroke="#1f8f73" stroke-width="3" stroke-linecap="round" opacity="0.95"/>
<circle cx="410.0" cy="852" r="6.5" fill="#fffaf1" stroke="#5c7c99" stroke-width="3"/>
<circle cx="453.7" cy="852" r="7.5" fill="#d95d39"/>
<text x="54" y="858" fill="#102a43" font-size="15" font-family="Avenir Next, Trebuchet MS, Helvetica Neue, sans-serif" font-weight="600">
<tspan x="54" dy="0">Gabon</tspan>
</text>
<text x="1095" y="857" fill="#102a43" font-size="14" font-family="Menlo, Consolas, Monaco, monospace"> 2 res  ·  1.04%</text>
<rect x="1328" y="839" width="78" height="26" rx="13" fill="#e8f4ef"/>
<text x="1367.0" y="857" text-anchor="middle" fill="#1f8f73" font-size="13" font-family="Menlo, Consolas, Monaco, monospace" font-weight="700">+1.0 pp</text>
<line x1="410" y1="904" x2="1040" y2="904" stroke="#c9bea9" stroke-width="1" opacity="0.35"/>
<line x1="454.1" y1="904" x2="453.7" y2="904" stroke="#c44536" stroke-width="3" stroke-linecap="round" opacity="0.95"/>
<circle cx="454.1" cy="904" r="6.5" fill="#fffaf1" stroke="#5c7c99" stroke-width="3"/>
<circle cx="453.7" cy="904" r="7.5" fill="#d95d39"/>
<text x="54" y="910" fill="#102a43" font-size="15" font-family="Avenir Next, Trebuchet MS, Helvetica Neue, sans-serif" font-weight="600">
<tspan x="54" dy="0">Iran (Islamic Republic of)</tspan>
</text>
<text x="1095" y="909" fill="#102a43" font-size="14" font-family="Menlo, Consolas, Monaco, monospace"> 2 res  ·  1.04%</text>
<rect x="1328" y="891" width="78" height="26" rx="13" fill="#fdeceb"/>
<text x="1367.0" y="909" text-anchor="middle" fill="#c44536" font-size="13" font-family="Menlo, Consolas, Monaco, monospace" font-weight="700">-0.0 pp</text>
<text x="54" y="978" fill="#52667a" font-size="13" font-family="Avenir Next, Trebuchet MS, Helvetica Neue, sans-serif">Top 15 tags shown. Source: current manual geographic mapping in ga_2024_geographic_mapping.csv and ga_2025_geographic_mapping.csv.</text>
<text x="1406" y="978" text-anchor="end" fill="#52667a" font-size="13" font-family="Avenir Next, Trebuchet MS, Helvetica Neue, sans-serif">2024 denominator: 95 resolutions  |  2025 denominator: 192 resolutions</text>
</svg>